<svg width="175" height="42" viewBox="0 0 175 42" fill="none" xmlns="http://www.w3.org/2000/svg">
<path d="M26.9866 7.99947C27.2337 7.02847 26.8425 6.36535 26.1 5.72503C24.231 4.11338 22.4316 2.42108 20.4354 0.607666C24.6781 0.607666 28.6667 0.607666 32.8293 0.607666C32.8293 0.977911 32.8293 1.35973 32.8293 1.74155C32.8288 13.1391 32.8311 24.5366 32.8261 35.9341C32.8247 39.0856 30.9078 40.974 27.7238 40.9752C20.3395 40.978 12.9549 40.9424 5.57095 40.9939C2.91394 41.0124 0.460312 39.2736 0.500862 36.0679C0.600838 28.1639 0.533778 20.2578 0.533872 12.3525C0.533875 12.1558 0.533874 11.9592 0.533874 11.6515C2.45411 11.3705 4.33209 11.0956 6.41626 10.7906C6.41626 9.10085 6.46438 7.35203 6.39647 5.60772C6.36117 4.70086 6.61279 4.32549 7.55148 4.08431C11.5466 3.05788 15.5111 1.91262 19.4886 0.817211C19.7173 0.754237 19.9617 0.748499 20.3528 0.695085C20.3528 1.96089 20.3528 3.18324 20.3529 4.62752C20.3519 9.17028 20.3439 13.4911 20.3515 17.812C20.3603 22.8916 20.3826 27.9712 20.3773 33.1457C20.3705 33.4986 20.3853 33.7565 20.3787 34.1171C20.5772 34.3981 20.7945 34.7266 21.0177 34.7307C22.6312 34.7604 24.2459 34.7244 25.9638 34.7295C26.3705 34.7305 26.6737 34.7112 26.9866 34.6913C26.9866 33.9203 26.9866 33.2447 27.0082 32.4581C27.0319 30.6277 27.0389 28.9083 27.0351 27.1889C27.0209 20.7924 27.0031 14.396 26.9866 7.99947ZM13.329 16.0702C13.3289 14.9066 13.3542 13.7421 13.3123 12.58C13.3009 12.2647 13.1768 11.8249 12.9493 11.6698C12.2094 11.1652 11.3977 10.7661 10.5177 10.2726C10.5177 18.5259 10.5177 26.6026 10.5177 34.675C11.4842 34.675 12.3806 34.675 13.329 34.675C13.329 28.4993 13.329 22.4051 13.329 16.0702Z" fill="#F5F5F5"/>
<path d="M50.7247 23.417C50.7247 21.6985 50.7247 20.1004 50.7247 18.4307C52.0758 18.4307 53.3409 18.4307 54.7664 18.4307C54.7664 18.7835 54.7664 19.1663 54.7664 19.5491C54.7665 24.1247 54.7675 28.7002 54.7664 33.2758C54.7655 36.8372 52.7795 39.667 49.5893 40.6574C46.0025 41.7709 42.2292 40.6504 40.3421 37.714C39.7017 36.7176 39.1861 35.4443 39.1586 34.2846C39.0338 29.0327 39.104 23.7762 39.104 18.4395C40.447 18.4395 41.7478 18.4395 43.2043 18.4395C43.2043 18.7901 43.2043 19.1737 43.2043 19.5574C43.2043 24.0928 43.1831 28.6283 43.2118 33.1635C43.2307 36.1372 45.8271 37.9762 48.4448 36.8918C49.8661 36.3031 50.6586 35.2035 50.6765 33.6506C50.7152 30.2798 50.7112 26.9085 50.7247 23.417Z" fill="#F5F5F5"/>
<path d="M69.701 21.2492C69.701 19.7712 69.701 18.4136 69.701 16.9844C70.98 16.9844 72.2016 16.9844 73.5238 16.9844C73.5238 20.191 73.5238 23.4168 73.5238 27.0151C75.4537 25.4574 77.4995 25.2332 79.5465 25.6434C81.6799 26.0709 83.2614 27.4502 84.332 29.3272C86.1098 32.4438 85.4406 36.542 82.805 38.9613C80.4784 41.0969 76.857 41.9126 73.2029 39.1874C73.1531 39.6453 73.1096 40.046 73.0621 40.4823C71.9729 40.4823 70.9018 40.4823 69.701 40.4823C69.701 34.088 69.701 27.7288 69.701 21.2492ZM73.3171 32.3422C73.3089 32.6228 73.2927 32.9035 73.2938 33.1841C73.3021 35.2157 74.7318 37.0649 76.5359 37.3821C78.6892 37.7606 80.5686 36.7087 81.3345 34.6962C82.047 32.8243 81.3005 30.6055 79.6137 29.5396C77.6474 28.2971 74.3944 28.798 73.3171 32.3422Z" fill="#F5F5F5"/>
<path d="M88.4816 28.9744C90.8695 25.8203 93.8241 24.7277 96.965 25.8504C97.7699 26.1381 98.4926 26.6561 99.305 27.0965C99.3329 26.7322 99.362 26.3527 99.397 25.8973C100.452 25.8973 101.513 25.8973 102.659 25.8973C102.659 30.705 102.659 35.5333 102.659 40.441C101.642 40.441 100.58 40.441 99.4284 40.441C99.387 40.0907 99.3423 39.7126 99.2801 39.1867C97.7599 40.3984 96.0763 41.0657 94.1961 40.9172C92.3064 40.768 90.6532 39.9935 89.3625 38.5674C86.9393 35.89 86.6008 32.2703 88.4816 28.9744ZM90.9167 32.7731C90.9365 35.7321 92.7618 37.536 95.5978 37.3995C97.5367 37.3061 99.2755 35.3805 99.3258 33.271C99.3762 31.1568 97.6038 29.0822 95.6411 28.9579C93.1797 28.802 91.7749 29.8831 90.9167 32.7731Z" fill="#F5F5F5"/>
<path d="M135.011 22.0096C135.065 21.8878 135.093 21.8567 135.108 21.8202C135.576 20.6845 135.743 19.0634 136.589 18.5425C137.518 17.9706 139.071 18.4122 140.497 18.4122C137.434 26.0277 134.382 33.6148 131.254 41.3922C128.142 33.6359 125.104 26.0657 122.011 18.3582C123.321 18.3582 124.51 18.297 125.686 18.3976C126.013 18.4257 126.44 18.875 126.583 19.2277C128.119 23.0128 129.607 26.8173 131.109 30.6161C131.176 30.7858 131.253 30.9513 131.387 31.2582C132.626 28.0993 133.802 25.0985 135.011 22.0096Z" fill="#F5F5F5"/>
<path d="M163.441 34.2316C162.474 34.0944 162.853 34.6749 162.97 34.9424C163.645 36.4829 164.811 37.4213 166.506 37.6296C168.54 37.8797 170.29 37.2943 171.759 35.652C172.046 36.7663 172.35 37.7392 172.52 38.7349C172.569 39.0205 172.318 39.505 172.059 39.6731C168.042 42.2799 160.615 41.3425 159.213 34.9528C158.352 31.0318 159.854 27.3057 164.167 25.7813C167.955 24.4424 172.134 26.1996 173.609 29.8854C174.126 31.1773 174.19 32.6504 174.5 34.2421C170.662 34.2421 167.109 34.2421 163.441 34.2316ZM169.965 31.5833C170.153 31.5833 170.341 31.5833 170.55 31.5833C169.864 29.5081 168.404 28.4084 166.49 28.4763C164.666 28.541 163.222 29.7221 162.745 31.5422C165.087 31.5422 167.428 31.5422 169.965 31.5833Z" fill="#F5F5F5"/>
<path d="M116.516 35.2209C116.498 33.9783 116.544 32.8504 116.447 31.7348C116.282 29.8357 115.049 28.8416 113.121 28.9467C111.472 29.0367 110.408 30.1794 110.393 31.9633C110.369 34.7648 110.387 37.5667 110.387 40.4464C109.054 40.4464 107.796 40.4464 106.475 40.4464C106.475 35.5906 106.475 30.7558 106.475 25.8708C107.643 25.8708 108.75 25.8708 109.929 25.8708C109.929 26.3398 109.929 26.7629 109.929 27.1591C110.927 26.6151 111.824 25.9012 112.842 25.611C116.874 24.4616 120.348 27.278 120.477 31.7824C120.559 34.6268 120.492 37.4754 120.492 40.4229C119.206 40.4229 117.947 40.4229 116.516 40.4229C116.516 38.761 116.516 37.0511 116.516 35.2209Z" fill="#F5F5F5"/>
<path d="M145.854 40.5405C143.291 39.2968 142.164 37.2806 142.19 34.5502C142.217 31.7443 142.202 28.9379 142.211 26.1318C142.211 26.0631 142.269 25.9946 142.322 25.8748C143.52 25.8748 144.74 25.8748 146.061 25.8748C146.061 28.6429 146.045 31.3585 146.066 34.0738C146.082 36.2375 147.429 37.5217 149.504 37.4087C151.115 37.321 152.286 35.9924 152.304 34.1434C152.33 31.4215 152.311 28.6992 152.311 25.8987C153.58 25.8987 154.801 25.8987 156.101 25.8987C156.101 30.7013 156.101 35.5304 156.101 40.4395C154.994 40.4395 153.855 40.4395 152.625 40.4395C152.602 40.0334 152.577 39.6153 152.545 39.0653C150.598 40.9245 148.439 41.5458 145.854 40.5405Z" fill="#F5F5F5"/>
<path d="M61.0121 40.5188C60.1815 40.5189 59.467 40.5189 58.6849 40.5189C58.6849 35.6249 58.6849 30.7991 58.6849 25.8983C59.7285 25.8983 60.7884 25.8983 61.9783 25.8983C61.9783 26.5945 61.9783 27.3219 61.9783 28.3871C63.2605 26.5562 64.773 25.7448 66.8267 25.6123C67.1164 26.7318 67.4161 27.8901 67.7224 29.0737C64.3443 28.7143 62.4741 30.4231 62.4731 33.7989C62.4725 35.995 62.473 38.1911 62.473 40.5187C61.9795 40.5187 61.5539 40.5187 61.0121 40.5188Z" fill="#F5F5F5"/>
</svg>
