<svg width="149" height="149" viewBox="0 0 149 149" fill="none" xmlns="http://www.w3.org/2000/svg">
    <path fill-rule="evenodd" clip-rule="evenodd"
        d="M27.37 73.32C5.14002 85.52 65.02 92.93 78.51 92.81V85.37L89.72 96.57L78.51 107.79V100.82C51.4 101.85 -12.41 84.4 25.97 69.92C26.33 71.05 26.77 72.12 27.27 73.12L27.37 73.32ZM122.36 50.31C122.36 47.7 122.83 45.87 123.77 44.83C124.71 43.79 126.14 43.27 128.07 43.27C128.99 43.27 129.76 43.39 130.35 43.61C130.94 43.84 131.43 44.13 131.8 44.5C132.18 44.86 132.47 45.25 132.69 45.65C132.91 46.05 133.08 46.52 133.21 47.06C133.47 48.08 133.59 49.15 133.59 50.27C133.59 52.76 133.17 54.59 132.32 55.74C131.48 56.89 130.03 57.47 127.96 57.47C126.81 57.47 125.87 57.28 125.16 56.92C124.45 56.55 123.86 56.01 123.41 55.3C123.08 54.79 122.82 54.1 122.64 53.23C122.45 52.34 122.36 51.38 122.36 50.31ZM40.47 52.49L31.47 50.89C32.22 48.03 33.65 45.83 35.78 44.3C37.9 42.77 40.91 42 44.8 42C49.27 42 52.49 42.83 54.49 44.5C56.48 46.17 57.47 48.27 57.47 50.79C57.47 52.27 57.06 53.61 56.26 54.8C55.45 56 54.24 57.05 52.61 57.95C53.93 58.28 54.95 58.66 55.64 59.1C56.78 59.8 57.66 60.73 58.29 61.87C58.92 63.02 59.24 64.38 59.24 65.97C59.24 67.97 58.72 69.88 57.68 71.72C56.63 73.55 55.13 74.96 53.17 75.95C51.21 76.94 48.63 77.43 45.43 77.43C42.32 77.43 39.86 77.06 38.07 76.33C36.27 75.6 34.79 74.53 33.63 73.11C32.47 71.7 31.58 69.92 30.96 67.78L40.49 66.51C40.87 68.43 41.44 69.77 42.23 70.52C43.01 71.26 44.01 71.64 45.23 71.64C46.5 71.64 47.56 71.17 48.41 70.24C49.26 69.31 49.68 68.06 49.68 66.5C49.68 64.91 49.27 63.68 48.46 62.81C47.65 61.94 46.54 61.5 45.14 61.5C44.4 61.5 43.37 61.68 42.07 62.06L42.56 55.25C43.08 55.33 43.49 55.37 43.78 55.37C45.01 55.37 46.04 54.97 46.86 54.18C47.68 53.39 48.1 52.46 48.1 51.37C48.1 50.32 47.79 49.49 47.17 48.88C46.55 48.26 45.69 47.95 44.62 47.95C43.5 47.95 42.6 48.29 41.9 48.96C41.19 49.62 40.72 50.8 40.47 52.49ZM89.15 50.27L79.67 51.43C79.42 50.11 79.01 49.19 78.43 48.65C77.84 48.11 77.12 47.84 76.27 47.84C74.73 47.84 73.53 48.61 72.68 50.17C72.06 51.3 71.59 53.69 71.3 57.36C72.44 56.2 73.61 55.35 74.8 54.8C76 54.25 77.39 53.97 78.96 53.97C82.02 53.97 84.6 55.06 86.71 57.24C88.82 59.43 89.88 62.2 89.88 65.55C89.88 67.81 89.35 69.87 88.28 71.75C87.21 73.62 85.73 75.04 83.84 76C81.94 76.96 79.57 77.44 76.71 77.44C73.28 77.44 70.53 76.86 68.46 75.68C66.39 74.51 64.73 72.65 63.49 70.09C62.25 67.53 61.63 64.14 61.63 59.91C61.63 53.73 62.93 49.2 65.54 46.32C68.13 43.44 71.74 42 76.36 42C79.09 42 81.24 42.31 82.82 42.94C84.4 43.57 85.72 44.5 86.76 45.7C87.81 46.92 88.61 48.44 89.15 50.27ZM71.62 65.55C71.62 67.41 72.09 68.86 73.02 69.91C73.96 70.96 75.1 71.49 76.46 71.49C77.71 71.49 78.76 71.01 79.6 70.06C80.44 69.11 80.86 67.69 80.86 65.8C80.86 63.87 80.42 62.39 79.55 61.38C78.67 60.37 77.59 59.86 76.29 59.86C74.97 59.86 73.85 60.35 72.95 61.34C72.06 62.32 71.62 63.72 71.62 65.55ZM91.91 59.57C91.91 53.06 93.08 48.5 95.43 45.9C97.77 43.3 101.35 42 106.14 42C108.45 42 110.34 42.29 111.82 42.85C113.3 43.42 114.51 44.16 115.44 45.07C116.38 45.98 117.12 46.94 117.65 47.94C118.19 48.95 118.62 50.12 118.95 51.46C119.59 54.01 119.91 56.68 119.91 59.46C119.91 65.68 118.86 70.22 116.75 73.1C114.65 75.98 111.03 77.42 105.88 77.42C103 77.42 100.67 76.96 98.89 76.04C97.11 75.12 95.66 73.77 94.52 71.99C93.7 70.73 93.05 69.01 92.59 66.82C92.14 64.64 91.91 62.22 91.91 59.57ZM101.34 59.59C101.34 63.95 101.72 66.93 102.5 68.53C103.27 70.13 104.39 70.92 105.86 70.92C106.83 70.92 107.66 70.58 108.37 69.91C109.08 69.23 109.6 68.15 109.93 66.69C110.27 65.22 110.43 62.94 110.43 59.84C110.43 55.29 110.05 52.24 109.27 50.66C108.5 49.1 107.34 48.31 105.8 48.31C104.22 48.31 103.09 49.11 102.38 50.7C101.69 52.31 101.34 55.27 101.34 59.59ZM126.14 50.32C126.14 52.07 126.29 53.26 126.6 53.9C126.91 54.54 127.36 54.86 127.95 54.86C128.34 54.86 128.67 54.73 128.96 54.45C129.24 54.18 129.45 53.75 129.59 53.16C129.72 52.57 129.79 51.66 129.79 50.42C129.79 48.6 129.64 47.37 129.33 46.74C129.02 46.11 128.56 45.8 127.94 45.8C127.31 45.8 126.85 46.12 126.57 46.76C126.28 47.4 126.14 48.59 126.14 50.32ZM123.3 72.23C133.86 77.6 131.34 85.22 112.64 89.85C107.34 91.16 101.35 92.35 94.78 92.84V98.89C102.09 98.38 108.89 96.7 114.84 95.26C142.96 88.45 141.98 76.29 124.2 69.43C123.95 70.42 123.65 71.35 123.3 72.23Z"
        fill="#dedede" />
</svg>
    